<svg xmlns="http://www.w3.org/2000/svg" viewBox="0 0 169.51 177.17"><title>o-logo</title><g id="Layer_2" data-name="Layer 2"><g id="Layer_1-2" data-name="Layer 1"><path d="M80,.15a88.11,88.11,0,0,1,36.61,5.57C148.48,18,170.81,48.58,169.45,83.11a93.27,93.27,0,0,1-2.61,18.21c-6.23,25.79-22.44,43.82-46.6,54.51-17.09,7.56-35,9-53.3,5.65-17.64-3.27-33-11.16-45.24-24.33C3.45,117.54-2.91,94.13,1.2,67.92c2.77-17.71,11-32.74,24.13-45C40.11,9.09,59.88,1.3,80,.15ZM125.45,82c-.19-19.63-12.41-37.94-32-42.56a40.34,40.34,0,0,0-40.54,14C43,66,41.54,84.4,47.48,99c8.51,20.85,33.45,31.79,54.23,22.38C117,114.39,125.61,98.45,125.45,82Z"/><path d="M3.24,177.17v-5.94H167.59c0,.43.07.81.07,1.2,0,1.55,0,3.1,0,4.73Z"/></g></g></svg>